<svg id="Calque_1" data-name="Calque 1" xmlns="http://www.w3.org/2000/svg" viewBox="0 0 740 380"><title>ic_bot</title><rect width="740" height="380" style="fill:#fff"/><path d="M446,39.74H297.89c-68.44,0-68.44,0-68.44,57.54v78c0,17.49,6.58,30.39,16.55,38l-0.86.22,43.92,41.87-7.91-34.12H417.37c62.68,0,66.11-36.55,66.11-84.52V82.3C483.48,72.46,478.34,39.74,446,39.74Z" transform="translate(-5)" style="fill:#31404b"/><rect x="418.15" y="83.84" width="5.53" height="51.95" style="fill:#1bb7ca"/><ellipse cx="421.39" cy="143.73" rx="17.2" ry="16.37" style="fill:#145492"/><path d="M509.87,222.32v93.07l-170.12-1.47v-91.6A85.06,85.06,0,0,1,509.87,222.32Z" transform="translate(-5)" style="fill:#3fb7ea"/><circle cx="420.22" cy="78.31" r="11.61" style="fill:#3fb7ea"/><circle cx="391.94" cy="233.93" r="38.04" style="fill:#fff"/><path d="M396.94,274.41a40.48,40.48,0,1,1,40.48-40.48A40.53,40.53,0,0,1,396.94,274.41Zm0-76.08a35.6,35.6,0,1,0,35.6,35.6A35.64,35.64,0,0,0,396.94,198.33Z" transform="translate(-5)" style="fill:#303390"/><circle cx="391.94" cy="235.26" r="30.76" style="fill:#fcba16"/><circle cx="391.94" cy="235.26" r="21.65" style="fill:#fff"/><circle cx="391.94" cy="235.26" r="12.09" style="fill:#303390"/><circle cx="461.67" cy="244.31" r="26.42" style="fill:#fcba16"/><circle cx="461.67" cy="244.31" r="18.59" style="fill:#fff"/><circle cx="461.67" cy="244.31" r="10.38" style="fill:#303390"/><path d="M520.55,323.68A16.58,16.58,0,0,1,504,340.26H346.47a16.58,16.58,0,0,1-16.58-16.58h0a16.58,16.58,0,0,1,16.58-16.58H504a16.58,16.58,0,0,1,16.58,16.58h0Z" transform="translate(-5)" style="fill:#1bb7ca"/><rect x="334.74" y="228.08" width="19.16" height="11.79" style="fill:#303390"/></svg>