<svg id="Calque_1" data-name="Calque 1" xmlns="http://www.w3.org/2000/svg" viewBox="0 0 740 380"><title>ic_lost</title><rect width="740" height="380" style="fill:#fff"/><path d="M398.22,235.19q-2.38,5.3-4.08,6.43a7.82,7.82,0,0,1-4.42,1.13H377.5q-13.25,0-19-6.24a21.71,21.71,0,0,1-5.78-15.32,35.9,35.9,0,0,1,4.25-16.83,84.44,84.44,0,0,1,10.7-15.7q6.45-7.56,13.76-14.94T395.17,159a85.44,85.44,0,0,0,10.7-15.13,33.76,33.76,0,0,0,4.25-16.46,29.39,29.39,0,0,0-5.27-16.83q-5.27-7.75-17.16-7.76-9.17,0-14.78,4.16a31.05,31.05,0,0,0-9,10.59,55.68,55.68,0,0,0-5.1,14.19q-1.7,7.76-3.06,15.32-0.68,4.17-2.21,5.48t-7.64,1.32q-20.73,0-29.39-8.13t-8.66-25.16q0-17.78,7.64-30.64a65.52,65.52,0,0,1,20-21.18,89.2,89.2,0,0,1,28.2-12.29,131.19,131.19,0,0,1,32.11-4q19.37,0,33.13,5.48a62.86,62.86,0,0,1,22.59,14.75,58.73,58.73,0,0,1,13.08,21.56,77.72,77.72,0,0,1,4.25,25.54q0,20.06-8.83,35.56a165.45,165.45,0,0,1-20.72,28.75q-11.9,13.25-23.61,25.35A84.56,84.56,0,0,0,398.22,235.19Zm-25.48,34q14.27,0,20.39,7.76t6.12,21.75A71.88,71.88,0,0,1,397.89,312,43,43,0,0,1,393,325.41,31.12,31.12,0,0,1,382.77,336q-6.62,4.34-17.16,4.35-15.29,0-20.73-8.89t-5.44-22.13a63.75,63.75,0,0,1,1.7-14.75,39.74,39.74,0,0,1,5.44-12.86,27,27,0,0,1,10.19-9.08Q363.23,269.24,372.74,269.24Z" transform="translate(-5)" style="fill:#31404b"/><rect x="272.96" y="156.55" width="204.08" height="132.07" rx="14.81" ry="14.81" transform="matrix(0.99, -0.16, 0.16, 0.99, -36.09, 63.65)" style="fill:#fff;stroke:#2c2f82;stroke-miterlimit:10;stroke-width:5.09536855474437px"/><line x1="290.26" y1="252.71" x2="408.92" y2="233.24" style="fill:none;stroke:#139fd2;stroke-linecap:round;stroke-linejoin:round;stroke-width:6.11444226569324px"/><line x1="293.43" y1="272" x2="396.73" y2="255.05" style="fill:none;stroke:#139fd2;stroke-linecap:round;stroke-linejoin:round;stroke-width:6.11444226569324px"/><polygon points="440.94 233.34 437.78 214.06 448.92 222.13 460.06 230.2 452.08 241.41 444.1 252.62 440.94 233.34" style="fill:none;stroke:#139fd2;stroke-linecap:round;stroke-linejoin:round;stroke-width:5.09536855474437px"/><rect x="288.13" y="190.1" width="39.71" height="35.09" rx="12.26" ry="12.26" transform="translate(-34.55 52.6) rotate(-9.32)" style="fill:#139fd2"/><path d="M385.82,222.36q-2.38,5.3-4.08,6.43a7.82,7.82,0,0,1-4.42,1.13H365.1q-13.25,0-19-6.24a21.71,21.71,0,0,1-5.78-15.32,35.9,35.9,0,0,1,4.25-16.83,84.44,84.44,0,0,1,10.7-15.7q6.45-7.56,13.76-14.94t13.76-14.75A85.44,85.44,0,0,0,393.47,131a33.76,33.76,0,0,0,4.25-16.46,29.39,29.39,0,0,0-5.27-16.83Q387.18,90,375.29,90q-9.17,0-14.78,4.16a31.05,31.05,0,0,0-9,10.59,55.68,55.68,0,0,0-5.1,14.19q-1.7,7.76-3.06,15.32-0.68,4.17-2.21,5.48T333.5,141q-20.73,0-29.39-8.13t-8.66-25.16q0-17.78,7.64-30.64a65.52,65.52,0,0,1,20-21.18,89.2,89.2,0,0,1,28.2-12.29,131.19,131.19,0,0,1,32.11-4q19.37,0,33.13,5.48a62.86,62.86,0,0,1,22.59,14.75,58.73,58.73,0,0,1,13.08,21.56A77.72,77.72,0,0,1,456.49,107q0,20.06-8.83,35.56a165.45,165.45,0,0,1-20.72,28.75q-11.9,13.25-23.61,25.35A84.56,84.56,0,0,0,385.82,222.36Zm-25.48,34q14.27,0,20.39,7.76t6.12,21.75a71.88,71.88,0,0,1-1.36,13.24,43,43,0,0,1-4.93,13.43,31.12,31.12,0,0,1-10.19,10.59q-6.62,4.34-17.16,4.35-15.29,0-20.73-8.89T327,296.51a63.75,63.75,0,0,1,1.7-14.75,39.74,39.74,0,0,1,5.44-12.86,27,27,0,0,1,10.19-9.08Q350.83,256.41,360.34,256.41Z" transform="translate(-5)" style="fill:#145492"/></svg>