<svg id="Calque_1" data-name="Calque 1" xmlns="http://www.w3.org/2000/svg" viewBox="0 0 740 380"><title>ic_map</title><rect width="740" height="380" style="fill:#fff"/><polygon points="240.14 235.25 193.28 334.58 311.98 314.59 415.68 338.95 546.86 325.21 503.76 227.76 403.81 237.13 326.34 215.27 240.14 235.25" style="fill:#fff;fill-rule:evenodd"/><polygon points="193.28 334.58 420.63 338.88 458.44 264.04 286.61 268.06 193.28 334.58" style="fill:#ededed;fill-rule:evenodd"/><path d="M198.28,334.58L424,338.64,462,264l-170.35,4.06Z" transform="translate(-5)" style="fill:#ececec;fill-rule:evenodd"/><path d="M198.28,334.58l224,3.83L460.48,264l-168.86,4.09Z" transform="translate(-5)" style="fill:#ebebeb;fill-rule:evenodd"/><path d="M198.28,334.58l222.31,3.6L459,263.94l-167.38,4.12Z" transform="translate(-5)" style="fill:#eaeaea;fill-rule:evenodd"/><path d="M198.28,334.58l220.63,3.36,38.6-74-165.9,4.15Z" transform="translate(-5)" style="fill:#e9e9e9;fill-rule:evenodd"/><path d="M198.29,334.58l218.95,3.13L456,263.88l-164.42,4.18Z" transform="translate(-5)" style="fill:#e8e8e8;fill-rule:evenodd"/><path d="M198.28,334.58l217.26,2.9,39-73.63-162.93,4.21Z" transform="translate(-5)" style="fill:#e7e7e7;fill-rule:evenodd"/><path d="M198.28,334.58l215.59,2.67,39.2-73.43-161.45,4.24Z" transform="translate(-5)" style="fill:#e6e6e6;fill-rule:evenodd"/><path d="M198.28,334.58L412.19,337l39.39-73.23-160,4.27Z" transform="translate(-5)" style="fill:#e5e5e5;fill-rule:evenodd"/><path d="M198.28,334.58l212.22,2.2,39.59-73-158.49,4.3Z" transform="translate(-5)" style="fill:#e4e4e4;fill-rule:evenodd"/><path d="M198.28,334.58l210.54,2,39.79-72.83-157,4.33Z" transform="translate(-5)" style="fill:#e3e3e3;fill-rule:evenodd"/><path d="M198.29,334.58l208.86,1.74,40-72.62-155.52,4.37Z" transform="translate(-5)" style="fill:#e2e2e2;fill-rule:evenodd"/><path d="M198.28,334.58l207.18,1.51,40.19-72.42-154,4.4Z" transform="translate(-5)" style="fill:#e1e1e1;fill-rule:evenodd"/><path d="M198.28,334.58l205.5,1.28,40.38-72.22-152.56,4.43Z" transform="translate(-5)" style="fill:#e0e0e0;fill-rule:evenodd"/><path d="M198.28,334.58l203.82,1,40.58-72-151.08,4.46Z" transform="translate(-5)" style="fill:#dedede;fill-rule:evenodd"/><path d="M198.28,334.58l202.14,0.81,40.78-71.82-149.59,4.49Z" transform="translate(-5)" style="fill:#ddd;fill-rule:evenodd"/><path d="M198.28,334.58l200.46,0.58,41-71.62-148.11,4.52Z" transform="translate(-5)" style="fill:#dcdcdc;fill-rule:evenodd"/><path d="M198.28,334.58l198.78,0.35,41.17-71.42-146.63,4.55Z" transform="translate(-5)" style="fill:#dbdbdb;fill-rule:evenodd"/><path d="M198.29,334.58l197.1,0.12,41.37-71.21-145.15,4.58Z" transform="translate(-5)" style="fill:#dadada;fill-rule:evenodd"/><path d="M198.28,334.58l195.42-.12,41.57-71-143.66,4.61Z" transform="translate(-5)" style="fill:#d9d9d9;fill-rule:evenodd"/><path d="M198.28,334.58L392,334.23l41.77-70.81-142.18,4.64Z" transform="translate(-5)" style="fill:#d8d8d8;fill-rule:evenodd"/><path d="M198.28,334.58L390.35,334l42-70.61-140.7,4.67Z" transform="translate(-5)" style="fill:#d7d7d7;fill-rule:evenodd"/><path d="M198.28,334.58l190.38-.81,42.16-70.41-139.22,4.7Z" transform="translate(-5)" style="fill:#d6d6d6;fill-rule:evenodd"/><path d="M198.28,334.58l188.7-1,42.36-70.21-137.73,4.73Z" transform="translate(-5)" style="fill:#d5d5d5;fill-rule:evenodd"/><path d="M198.28,334.58l187-1.28,42.56-70-136.25,4.76Z" transform="translate(-5)" style="fill:#d4d4d4;fill-rule:evenodd"/><path d="M198.28,334.58l185.34-1.51,42.76-69.8-134.77,4.79Z" transform="translate(-5)" style="fill:#d3d3d3;fill-rule:evenodd"/><path d="M198.28,334.58l183.66-1.74,43-69.6-133.29,4.82Z" transform="translate(-5)" style="fill:#d2d2d2;fill-rule:evenodd"/><path d="M198.28,334.58l182-2,43.15-69.4-131.81,4.85Z" transform="translate(-5)" style="fill:#d1d1d1;fill-rule:evenodd"/><path d="M198.28,334.58l180.3-2.2,43.35-69.2-130.32,4.89Z" transform="translate(-5)" style="fill:#d0d0d0;fill-rule:evenodd"/><path d="M198.28,334.58l178.62-2.44,43.55-69-128.84,4.92Z" transform="translate(-5)" style="fill:#cfcfcf;fill-rule:evenodd"/><path d="M198.28,334.58l176.94-2.67L419,263.12l-127.36,4.95Z" transform="translate(-5)" style="fill:#cecece;fill-rule:evenodd"/><path d="M198.28,334.58l175.26-2.9,43.94-68.59-125.88,5Z" transform="translate(-5)" style="fill:#cdcdcd;fill-rule:evenodd"/><path d="M198.28,334.58l173.58-3.13L416,263.06l-124.39,5Z" transform="translate(-5)" style="fill:#ccc;fill-rule:evenodd"/><path d="M198.29,334.58l171.9-3.36L414.53,263l-122.91,5Z" transform="translate(-5)" style="fill:#cbcbcb;fill-rule:evenodd"/><path d="M198.28,334.58L368.51,331,413,263l-121.43,5.07Z" transform="translate(-5)" style="fill:#cacaca;fill-rule:evenodd"/><path d="M198.28,334.58l168.54-3.83L411.56,263l-119.95,5.1Z" transform="translate(-5)" style="fill:#c9c9c9;fill-rule:evenodd"/><path d="M198.28,334.58l166.86-4.06,44.93-67.59-118.47,5.13Z" transform="translate(-5)" style="fill:#c8c8c8;fill-rule:evenodd"/><path d="M198.28,334.58l165.18-4.29L408.6,262.9l-117,5.16Z" transform="translate(-5)" style="fill:#c7c7c7;fill-rule:evenodd"/><path d="M198.28,334.58l163.5-4.52,45.33-67.18-115.5,5.19Z" transform="translate(-5)" style="fill:#c6c6c6;fill-rule:evenodd"/><path d="M198.29,334.58l161.82-4.76,45.53-67-114,5.22Z" transform="translate(-5)" style="fill:#c5c5c5;fill-rule:evenodd"/><path d="M198.28,334.58l160.14-5,45.72-66.78-112.54,5.25Z" transform="translate(-5)" style="fill:#c4c4c4;fill-rule:evenodd"/><path d="M198.28,334.58l158.46-5.22,45.92-66.58-111.05,5.28Z" transform="translate(-5)" style="fill:#c2c2c2;fill-rule:evenodd"/><path d="M198.28,334.58l156.78-5.45,46.12-66.38-109.57,5.31Z" transform="translate(-5)" style="fill:#c1c1c1;fill-rule:evenodd"/><path d="M198.28,334.58l155.1-5.68,46.32-66.18-108.09,5.34Z" transform="translate(-5)" style="fill:silver;fill-rule:evenodd"/><path d="M198.28,334.58l153.42-5.92,46.52-66-106.61,5.37Z" transform="translate(-5)" style="fill:#bfbfbf;fill-rule:evenodd"/><path d="M198.28,334.58L350,328.43l46.71-65.77-105.12,5.4Z" transform="translate(-5)" style="fill:#bebebe;fill-rule:evenodd"/><path d="M198.28,334.58l150.06-6.38,46.91-65.57-103.64,5.43Z" transform="translate(-5)" style="fill:#bdbdbd;fill-rule:evenodd"/><path d="M198.28,334.58L346.67,328l47.11-65.37-102.16,5.47Z" transform="translate(-5)" style="fill:#bcbcbc;fill-rule:evenodd"/><path d="M198.28,334.58L345,327.74l47.31-65.17-100.68,5.5Z" transform="translate(-5)" style="fill:#bbb;fill-rule:evenodd"/><path d="M198.28,334.58l145-7.08,47.51-65-99.2,5.53Z" transform="translate(-5)" style="fill:#bababa;fill-rule:evenodd"/><path d="M198.29,334.58l143.34-7.31,47.7-64.77-97.71,5.56Z" transform="translate(-5)" style="fill:#b9b9b9;fill-rule:evenodd"/><path d="M198.29,334.58L339.95,327l47.9-64.57-96.23,5.59Z" transform="translate(-5)" style="fill:#b8b8b8;fill-rule:evenodd"/><path d="M198.29,334.58l140-7.77,48.1-64.36-94.75,5.62Z" transform="translate(-5)" style="fill:#b7b7b7;fill-rule:evenodd"/><path d="M198.29,334.58l138.3-8,48.3-64.16-93.27,5.65Z" transform="translate(-5)" style="fill:#b6b6b6;fill-rule:evenodd"/><path d="M198.28,334.58l136.62-8.24,48.49-64-91.78,5.68Z" transform="translate(-5)" style="fill:#b5b5b5;fill-rule:evenodd"/><path d="M198.29,334.58l134.94-8.47,48.69-63.76-90.3,5.71Z" transform="translate(-5)" style="fill:#b4b4b4;fill-rule:evenodd"/><path d="M198.29,334.58l133.26-8.7,48.89-63.56-88.82,5.74Z" transform="translate(-5)" style="fill:#b3b3b3;fill-rule:evenodd"/><path d="M198.28,334.58l131.58-8.93L379,262.29l-87.34,5.77Z" transform="translate(-5)" style="fill:#b2b2b2;fill-rule:evenodd"/><path d="M198.29,334.58l129.9-9.16,49.29-63.16-85.86,5.8Z" transform="translate(-5)" style="fill:#b1b1b1;fill-rule:evenodd"/><path d="M198.28,334.58l128.22-9.4,49.48-63-84.37,5.83Z" transform="translate(-5)" style="fill:#b0b0b0;fill-rule:evenodd"/><path d="M198.29,334.58L324.83,325l49.68-62.75-82.89,5.86Z" transform="translate(-5)" style="fill:#afafaf;fill-rule:evenodd"/><path d="M198.29,334.58l124.86-9.86L373,262.17l-81.41,5.89Z" transform="translate(-5)" style="fill:#aeaeae;fill-rule:evenodd"/><path d="M198.29,334.58l123.18-10.09,50.08-62.35-79.93,5.92Z" transform="translate(-5)" style="fill:#adadad;fill-rule:evenodd"/><path d="M198.28,334.58l121.5-10.32,50.27-62.15-78.44,6Z" transform="translate(-5)" style="fill:#acacac;fill-rule:evenodd"/><path d="M198.29,334.58L318.11,324l50.47-61.95-77,6Z" transform="translate(-5)" style="fill:#ababab;fill-rule:evenodd"/><path d="M198.29,334.58l118.14-10.79L367.1,262l-75.48,6Z" transform="translate(-5)" style="fill:#aaa;fill-rule:evenodd"/><path d="M198.29,334.58l116.46-11L365.61,262l-74,6Z" transform="translate(-5)" style="fill:#a9a9a9;fill-rule:evenodd"/><path d="M198.29,334.58l114.78-11.25L364.13,262l-72.52,6.08Z" transform="translate(-5)" style="fill:#a8a8a8;fill-rule:evenodd"/><path d="M198.29,334.58l113.1-11.48L362.65,262l-71,6.11Z" transform="translate(-5)" style="fill:#a6a6a6;fill-rule:evenodd"/><path d="M198.29,334.58L309.7,322.86l51.46-60.94-69.55,6.14Z" transform="translate(-5)" style="fill:#a5a5a5;fill-rule:evenodd"/><path d="M198.28,334.58L308,322.63l51.66-60.74-68.07,6.17Z" transform="translate(-5)" style="fill:#a4a4a4;fill-rule:evenodd"/><path d="M198.29,334.58L306.35,322.4l51.86-60.54-66.59,6.2Z" transform="translate(-5)" style="fill:#a3a3a3;fill-rule:evenodd"/><path d="M198.28,334.58l106.38-12.41,52.05-60.34-65.1,6.23Z" transform="translate(-5)" style="fill:#a2a2a2;fill-rule:evenodd"/><path d="M198.29,334.58L303,321.94l52.25-60.13-63.62,6.26Z" transform="translate(-5)" style="fill:#a1a1a1;fill-rule:evenodd"/><path d="M198.29,334.58l103-12.88,52.45-59.93-62.14,6.29Z" transform="translate(-5)" style="fill:#a0a0a0;fill-rule:evenodd"/><path d="M198.29,334.58l101.34-13.11,52.65-59.73-60.66,6.32Z" transform="translate(-5)" style="fill:#9f9f9f;fill-rule:evenodd"/><path d="M198.28,334.58l99.66-13.34,52.85-59.53-59.17,6.35Z" transform="translate(-5)" style="fill:#9e9e9e;fill-rule:evenodd"/><path d="M198.28,334.58l98-13.57,53-59.33-57.69,6.38Z" transform="translate(-5)" style="fill:#9d9d9d;fill-rule:evenodd"/><path d="M198.29,334.58l96.3-13.8,53.24-59.13-56.21,6.41Z" transform="translate(-5)" style="fill:#9c9c9c;fill-rule:evenodd"/><path d="M198.29,334.58l94.62-14,53.44-58.93-54.73,6.44Z" transform="translate(-5)" style="fill:#9b9b9b;fill-rule:evenodd"/><path d="M198.29,334.58l92.94-14.27,53.64-58.72-53.25,6.47Z" transform="translate(-5)" style="fill:#9a9a9a;fill-rule:evenodd"/><polygon points="193.28 334.58 284.54 320.08 338.38 261.56 286.61 268.06 193.28 334.58" style="fill:#999;fill-rule:evenodd"/><polygon points="415.63 339.54 540.25 343.11 514.84 294.75 425.09 296.77 415.63 339.54" style="fill:#ededed;fill-rule:evenodd"/><path d="M420.63,339.54L544.2,343,519,294.73l-88.93,2Z" transform="translate(-5)" style="fill:#ececec;fill-rule:evenodd"/><path d="M420.63,339.54l122.53,3.26-25-48.09-88.12,2.07Z" transform="translate(-5)" style="fill:#ebebeb;fill-rule:evenodd"/><path d="M420.63,339.54l121.49,3.1-24.72-48-87.3,2.09Z" transform="translate(-5)" style="fill:#eaeaea;fill-rule:evenodd"/><path d="M420.63,339.54l120.45,2.94-24.49-47.83-86.49,2.11Z" transform="translate(-5)" style="fill:#e9e9e9;fill-rule:evenodd"/><path d="M420.63,339.54L540,342.33l-24.26-47.7-85.67,2.14Z" transform="translate(-5)" style="fill:#e8e8e8;fill-rule:evenodd"/><path d="M420.63,339.54L539,342.17,515,294.6l-84.86,2.16Z" transform="translate(-5)" style="fill:#e7e7e7;fill-rule:evenodd"/><path d="M420.63,339.54L537.94,342l-23.81-47.43-84,2.19Z" transform="translate(-5)" style="fill:#e6e6e6;fill-rule:evenodd"/><path d="M420.63,339.54l116.27,2.32-23.58-47.3-83.23,2.21Z" transform="translate(-5)" style="fill:#e5e5e5;fill-rule:evenodd"/><path d="M420.63,339.54l115.23,2.16-23.35-47.17-82.42,2.24Z" transform="translate(-5)" style="fill:#e4e4e4;fill-rule:evenodd"/><path d="M420.63,339.54l114.19,2-23.12-47-81.6,2.26Z" transform="translate(-5)" style="fill:#e3e3e3;fill-rule:evenodd"/><path d="M420.63,339.54l113.14,1.85-22.89-46.91-80.79,2.29Z" transform="translate(-5)" style="fill:#e2e2e2;fill-rule:evenodd"/><path d="M420.63,339.54l112.1,1.69-22.66-46.78-80,2.31Z" transform="translate(-5)" style="fill:#e1e1e1;fill-rule:evenodd"/><path d="M420.63,339.54l111.06,1.54-22.43-46.65-79.16,2.34Z" transform="translate(-5)" style="fill:#e0e0e0;fill-rule:evenodd"/><path d="M420.63,339.54l110,1.38-22.2-46.52-78.35,2.36Z" transform="translate(-5)" style="fill:#dedede;fill-rule:evenodd"/><path d="M420.63,339.54l109,1.23-22-46.38-77.53,2.39Z" transform="translate(-5)" style="fill:#ddd;fill-rule:evenodd"/><path d="M420.63,339.54l107.93,1.07-21.74-46.25-76.72,2.41Z" transform="translate(-5)" style="fill:#dcdcdc;fill-rule:evenodd"/><path d="M420.63,339.54l106.88,0.91L506,294.33l-75.91,2.44Z" transform="translate(-5)" style="fill:#dbdbdb;fill-rule:evenodd"/><path d="M420.63,339.54l105.84,0.76-21.29-46-75.09,2.46Z" transform="translate(-5)" style="fill:#dadada;fill-rule:evenodd"/><path d="M420.63,339.54l104.8,0.6-21.06-45.86-74.28,2.49Z" transform="translate(-5)" style="fill:#d9d9d9;fill-rule:evenodd"/><path d="M420.63,339.54L524.38,340l-20.83-45.73-73.46,2.51Z" transform="translate(-5)" style="fill:#d8d8d8;fill-rule:evenodd"/><path d="M420.63,339.54l102.71,0.29-20.6-45.6-72.65,2.54Z" transform="translate(-5)" style="fill:#d7d7d7;fill-rule:evenodd"/><path d="M420.63,339.54l101.67,0.13L501.93,294.2l-71.83,2.56Z" transform="translate(-5)" style="fill:#d6d6d6;fill-rule:evenodd"/><path d="M420.63,339.54l100.62,0-20.14-45.33-71,2.59Z" transform="translate(-5)" style="fill:#d5d5d5;fill-rule:evenodd"/><path d="M420.63,339.54l99.58-.18-19.91-45.2-70.21,2.61Z" transform="translate(-5)" style="fill:#d4d4d4;fill-rule:evenodd"/><path d="M420.63,339.54l98.54-.33-19.68-45.07-69.39,2.64Z" transform="translate(-5)" style="fill:#d3d3d3;fill-rule:evenodd"/><path d="M420.63,339.54l97.49-.49-19.45-44.94-68.58,2.66Z" transform="translate(-5)" style="fill:#d2d2d2;fill-rule:evenodd"/><path d="M420.63,339.54l96.45-.65-19.22-44.81-67.76,2.69Z" transform="translate(-5)" style="fill:#d1d1d1;fill-rule:evenodd"/><path d="M420.63,339.54l95.41-.8-19-44.68-67,2.71Z" transform="translate(-5)" style="fill:#d0d0d0;fill-rule:evenodd"/><path d="M420.63,339.54l94.36-1L496.23,294l-66.14,2.74Z" transform="translate(-5)" style="fill:#cfcfcf;fill-rule:evenodd"/><path d="M420.63,339.54l93.32-1.12L495.41,294l-65.32,2.76Z" transform="translate(-5)" style="fill:#cecece;fill-rule:evenodd"/><path d="M420.63,339.54l92.28-1.27L494.6,294l-64.51,2.79Z" transform="translate(-5)" style="fill:#cdcdcd;fill-rule:evenodd"/><path d="M420.63,339.54l91.23-1.43L493.79,294l-63.69,2.81Z" transform="translate(-5)" style="fill:#ccc;fill-rule:evenodd"/><path d="M420.63,339.54L510.82,338l-17.85-44-62.88,2.84Z" transform="translate(-5)" style="fill:#cbcbcb;fill-rule:evenodd"/><path d="M420.63,339.54l89.15-1.74-17.62-43.89-62.07,2.86Z" transform="translate(-5)" style="fill:#cacaca;fill-rule:evenodd"/><path d="M420.63,339.54l88.1-1.9-17.39-43.76-61.25,2.89Z" transform="translate(-5)" style="fill:#c9c9c9;fill-rule:evenodd"/><path d="M420.63,339.54l87.06-2.05-17.16-43.63-60.44,2.91Z" transform="translate(-5)" style="fill:#c8c8c8;fill-rule:evenodd"/><path d="M420.63,339.54l86-2.21-16.93-43.5-59.62,2.94Z" transform="translate(-5)" style="fill:#c7c7c7;fill-rule:evenodd"/><path d="M420.63,339.54l85-2.36-16.7-43.37-58.81,3Z" transform="translate(-5)" style="fill:#c6c6c6;fill-rule:evenodd"/><path d="M420.63,339.54L504.56,337l-16.47-43.24-58,3Z" transform="translate(-5)" style="fill:#c5c5c5;fill-rule:evenodd"/><path d="M420.63,339.54l82.89-2.68-16.24-43.1-57.18,3Z" transform="translate(-5)" style="fill:#c4c4c4;fill-rule:evenodd"/><path d="M420.63,339.54l81.85-2.83-16-43-56.37,3Z" transform="translate(-5)" style="fill:#c2c2c2;fill-rule:evenodd"/><path d="M420.63,339.54l80.8-3-15.79-42.84-55.55,3.06Z" transform="translate(-5)" style="fill:#c1c1c1;fill-rule:evenodd"/><path d="M420.63,339.54l79.76-3.15-15.56-42.71-54.74,3.09Z" transform="translate(-5)" style="fill:silver;fill-rule:evenodd"/><path d="M420.63,339.54l78.72-3.3L484,293.66l-53.93,3.11Z" transform="translate(-5)" style="fill:#bfbfbf;fill-rule:evenodd"/><path d="M420.63,339.54l77.67-3.46-15.1-42.45-53.11,3.14Z" transform="translate(-5)" style="fill:#bebebe;fill-rule:evenodd"/><path d="M420.63,339.54l76.63-3.61-14.87-42.32-52.3,3.16Z" transform="translate(-5)" style="fill:#bdbdbd;fill-rule:evenodd"/><path d="M420.63,339.54l75.59-3.77-14.64-42.19-51.48,3.19Z" transform="translate(-5)" style="fill:#bcbcbc;fill-rule:evenodd"/><path d="M420.63,339.54l74.54-3.93-14.41-42.06-50.67,3.21Z" transform="translate(-5)" style="fill:#bbb;fill-rule:evenodd"/><path d="M420.63,339.54l73.5-4.08-14.18-41.92-49.85,3.24Z" transform="translate(-5)" style="fill:#bababa;fill-rule:evenodd"/><path d="M420.63,339.54l72.46-4.24-14-41.79-49,3.26Z" transform="translate(-5)" style="fill:#b9b9b9;fill-rule:evenodd"/><path d="M420.63,339.54L492,335.14l-13.72-41.66-48.23,3.29Z" transform="translate(-5)" style="fill:#b8b8b8;fill-rule:evenodd"/><path d="M420.63,339.54L491,335l-13.49-41.53-47.41,3.31Z" transform="translate(-5)" style="fill:#b7b7b7;fill-rule:evenodd"/><path d="M420.63,339.54L490,334.83l-13.26-41.4-46.6,3.34Z" transform="translate(-5)" style="fill:#b6b6b6;fill-rule:evenodd"/><path d="M420.63,339.54l68.28-4.86-13-41.27-45.78,3.36Z" transform="translate(-5)" style="fill:#b5b5b5;fill-rule:evenodd"/><path d="M420.63,339.54l67.24-5-12.81-41.14-45,3.39Z" transform="translate(-5)" style="fill:#b4b4b4;fill-rule:evenodd"/><path d="M420.63,339.54l66.2-5.17-12.58-41-44.16,3.41Z" transform="translate(-5)" style="fill:#b3b3b3;fill-rule:evenodd"/><path d="M420.63,339.54l65.15-5.33-12.35-40.87-43.34,3.44Z" transform="translate(-5)" style="fill:#b2b2b2;fill-rule:evenodd"/><path d="M420.63,339.54l64.11-5.49-12.12-40.74-42.53,3.46Z" transform="translate(-5)" style="fill:#b1b1b1;fill-rule:evenodd"/><path d="M420.63,339.54l63.07-5.64-11.89-40.61-41.71,3.49Z" transform="translate(-5)" style="fill:#b0b0b0;fill-rule:evenodd"/><path d="M420.63,339.54l62-5.8L471,293.26l-40.9,3.51Z" transform="translate(-5)" style="fill:#afafaf;fill-rule:evenodd"/><path d="M420.63,339.54l61-6-11.43-40.35-40.09,3.54Z" transform="translate(-5)" style="fill:#aeaeae;fill-rule:evenodd"/><path d="M420.63,339.54l59.94-6.11-11.2-40.22-39.27,3.56Z" transform="translate(-5)" style="fill:#adadad;fill-rule:evenodd"/><path d="M420.63,339.54l58.89-6.27-11-40.09-38.46,3.59Z" transform="translate(-5)" style="fill:#acacac;fill-rule:evenodd"/><path d="M420.63,339.54l57.85-6.42-10.74-40-37.64,3.61Z" transform="translate(-5)" style="fill:#ababab;fill-rule:evenodd"/><path d="M420.63,339.54L477.44,333l-10.51-39.82-36.83,3.64Z" transform="translate(-5)" style="fill:#aaa;fill-rule:evenodd"/><path d="M420.63,339.54l55.76-6.74-10.29-39.69-36,3.66Z" transform="translate(-5)" style="fill:#a9a9a9;fill-rule:evenodd"/><path d="M420.63,339.54l54.72-6.89-10.06-39.56-35.2,3.69Z" transform="translate(-5)" style="fill:#a8a8a8;fill-rule:evenodd"/><path d="M420.63,339.54l53.68-7-9.83-39.43-34.39,3.71Z" transform="translate(-5)" style="fill:#a6a6a6;fill-rule:evenodd"/><path d="M420.63,339.54l52.63-7.2-9.6-39.3-33.57,3.74Z" transform="translate(-5)" style="fill:#a5a5a5;fill-rule:evenodd"/><path d="M420.63,339.54l51.59-7.36L462.85,293l-32.76,3.76Z" transform="translate(-5)" style="fill:#a4a4a4;fill-rule:evenodd"/><path d="M420.63,339.54L471.18,332,462,293l-31.95,3.79Z" transform="translate(-5)" style="fill:#a3a3a3;fill-rule:evenodd"/><path d="M420.63,339.54l49.5-7.67L461.22,293l-31.13,3.81Z" transform="translate(-5)" style="fill:#a2a2a2;fill-rule:evenodd"/><path d="M420.63,339.54l48.46-7.83-8.68-38.78-30.32,3.84Z" transform="translate(-5)" style="fill:#a1a1a1;fill-rule:evenodd"/><path d="M420.63,339.54l47.42-8-8.45-38.64-29.5,3.86Z" transform="translate(-5)" style="fill:#a0a0a0;fill-rule:evenodd"/><path d="M420.63,339.54L467,331.4l-8.22-38.51-28.69,3.89Z" transform="translate(-5)" style="fill:#9f9f9f;fill-rule:evenodd"/><path d="M420.63,339.54l45.33-8.3-8-38.38-27.87,3.91Z" transform="translate(-5)" style="fill:#9e9e9e;fill-rule:evenodd"/><path d="M420.63,339.54l44.29-8.45-7.76-38.25-27.06,3.94Z" transform="translate(-5)" style="fill:#9d9d9d;fill-rule:evenodd"/><path d="M420.63,339.54l43.25-8.61-7.53-38.12-26.25,4Z" transform="translate(-5)" style="fill:#9c9c9c;fill-rule:evenodd"/><path d="M420.63,339.54l42.2-8.77-7.31-38-25.43,4Z" transform="translate(-5)" style="fill:#9b9b9b;fill-rule:evenodd"/><path d="M420.63,339.54l41.16-8.92-7.08-37.86-24.62,4Z" transform="translate(-5)" style="fill:#9a9a9a;fill-rule:evenodd"/><polygon points="415.63 339.54 455.74 330.46 448.9 292.73 425.09 296.77 415.63 339.54" style="fill:#999;fill-rule:evenodd"/><polygon points="403.86 236.54 504.12 227.15 547.71 325.71 415.64 339.54 311.96 315.18 192.29 335.33 239.73 234.76 326.35 214.67 403.86 236.54" style="fill:#c8c8c8;fill-rule:evenodd"/><path d="M317,314.6l-59.36,10-59.33,10q11.72-24.81,23.43-49.65l23.42-49.67,43.08-10,43.12-10q-3.61,24.84-7.2,49.68T317,314.6Z" transform="translate(-5)" style="fill:#fff;fill-rule:evenodd"/><path d="M317.36,311.88l-55.62,9.44-55.59,9.44,21.29-46.93,21.28-47,41.12-9.44q20.54-4.71,41.12-9.44-3.39,23.48-6.8,47Z" transform="translate(-5)" style="fill:#97d3e8;fill-rule:evenodd"/><path d="M319.32,298.24q-10.82,5.23-22,10.45c-7.47,3.5-15.08,7-22.74,10.44l13.2-2.23c5.24-2.4,10.48-4.8,15.63-7.21s10.21-4.82,15.28-7.24C318.93,301,319.13,299.63,319.32,298.24Z" transform="translate(-5)" style="fill:#fff;fill-rule:evenodd"/><path d="M325.08,258.51l-47.37,9.44-47.36,9.44c-0.51,1.1-1,2.2-1.49,3.29l47.86-9.44,47.89-9.44C324.74,260.71,324.92,259.6,325.08,258.51Z" transform="translate(-5)" style="fill:#fff;fill-rule:evenodd"/><path d="M324.6,261.88c-4.48,0-8.93,0-13.33-.07l-4.52,3.51c5.72,0,11.51.08,17.34,0.11C324.25,264.26,324.42,263.06,324.6,261.88Z" transform="translate(-5)" style="fill:#fff;fill-rule:evenodd"/><path d="M307.86,308.13c1.66-1.17,3.35-2.34,5-3.52q-17.36-1.52-34.08-3.07-16.37-1.51-32.09-3.08c-1.77,1.18-3.55,2.36-5.34,3.52q15.81,1.54,32.27,3.07Q290.38,306.61,307.86,308.13Z" transform="translate(-5)" style="fill:#fff;fill-rule:evenodd"/><path d="M271.92,301.39c0.69,0.86,1.4,1.69,2.1,2.53q12-4.35,23.82-8.72T321,286.47c0-.29.09-0.57,0.13-0.87-0.64-.64-1.25-1.29-1.86-1.93-7.72,3-15.52,5.94-23.38,8.88S280,298.44,271.92,301.39Z" transform="translate(-5)" style="fill:#fff;fill-rule:evenodd"/><path d="M223.23,293.08q17.86-4.87,35.51-9.76t34.85-9.77c0-1,0-2.09,0-3.13q-16.95,4.83-34.1,9.66t-34.77,9.64Z" transform="translate(-5)" style="fill:#fff;fill-rule:evenodd"/><path d="M279.22,289.28c1.65-1.16,3.31-2.33,5-3.51-4.27-.78-8.5-1.54-12.67-2.33s-8.2-1.56-12.2-2.35l-5.08,3.51c4,0.79,8.13,1.58,12.27,2.35S274.93,288.51,279.22,289.28Z" transform="translate(-5)" style="fill:#fff;fill-rule:evenodd"/><path d="M329,231.6q-21.2,2.52-41.9,5-20.5,2.51-40.53,5c-0.51,1.1-1,2.21-1.5,3.3q20.28-2.52,41-5,21-2.54,42.42-5Z" transform="translate(-5)" style="fill:#fff;fill-rule:evenodd"/><path d="M280.2,267.11c0.59,0.85,1.18,1.68,1.8,2.52,8.06-5.06,16-10.09,23.68-15.19s15-10.12,22.19-15.19l0.64-4.43c-7.58,5.38-15.33,10.81-23.31,16.14S288.72,261.73,280.2,267.11Z" transform="translate(-5)" style="fill:#fff;fill-rule:evenodd"/><path d="M308.58,251.6l5.42-3.91q-18.92,2.08-37.5,4.18Q258.09,253.94,240,256c-0.52,1.13-1,2.27-1.54,3.4q17.12-2,34.58-3.9T308.58,251.6Z" transform="translate(-5)" style="fill:#fff;fill-rule:evenodd"/><path d="M230.22,277.64c13.63-8.94,26.85-17.77,39.43-26.81,12.28-8.83,23.91-17.89,35.14-26.83l-6.51,1.49c-10.07,7.92-20.43,15.92-31.28,23.72-11.1,8-22.71,15.81-34.62,23.71Z" transform="translate(-5)" style="fill:#fff;fill-rule:evenodd"/><path d="M291,262.72l5.71-3.93-24.07,2.43L249,263.64l-6.11,3.93,23.79-2.4Z" transform="translate(-5)" style="fill:#fff;fill-rule:evenodd"/><path d="M327.23,243.67l-16.81,3.51-7.92,5.15,12.1-2.51,12.1-2.49C326.87,246.11,327,244.89,327.23,243.67Z" transform="translate(-5)" style="fill:#fff;fill-rule:evenodd"/><path d="M330.44,221.35c-5,.69-10,1.37-14.92,2.08l-14.76,2.09-5.19,3.93,17.1-2.4,17.31-2.4C330.12,223.56,330.28,222.46,330.44,221.35Z" transform="translate(-5)" style="fill:#fff;fill-rule:evenodd"/><path d="M320.89,282.73c0.2,0.21.4,0.41,0.6,0.61,0.05-.31.09-0.63,0.15-0.94Z" transform="translate(-5)" style="fill:#fff;fill-rule:evenodd"/><path d="M311.66,250.44Q300,258.17,287.94,265.9c6.17-1.23,12.38-.65,18.56-1.88s12.32-3.84,18.52-5.08l1.7-11.68Z" transform="translate(-5)" style="fill:#145492;fill-rule:evenodd"/><path d="M263.7,281.94q10,1.93,20.49,3.83c7.24-2.66,15.41-5.77,22.54-8.44-4.11-1.41-9.15-2.36-13.13-3.78q-7.42,2.11-14.9,4.2Z" transform="translate(-5)" style="fill:#145492;fill-rule:evenodd"/><path d="M328.36,234.93c-3,2.15-6.08,4.32-9.15,6.48l-20.7,2.33c2.7-2.09,5.39-4.15,8.05-6.24Z" transform="translate(-5)" style="fill:#1bb7ca;fill-rule:evenodd"/><path d="M245.47,302.39c4.59,0.44,9.23.9,13.92,1.34l14.32,1.34q-8.18,3.81-16.49,7.6c-4.84-.78-9.63-1.55-14.34-2.34S233.6,308.75,229,308Q237.29,305.19,245.47,302.39Z" transform="translate(-5)" style="fill:#145492;fill-rule:evenodd"/><path d="M278.39,240.87q-8.64,6.39-17.58,12.75L240,256q2.49-5.51,5-11c5.5-.67,11-1.37,16.55-2.05Z" transform="translate(-5)" style="fill:#145492;fill-rule:evenodd"/><path d="M286.26,251.48l-7.54.84q-7.54,5.78-15.37,11.54c-5.27,3.86-10.66,7.68-16.1,11.53l8.56-1.25q7.92-5.66,15.59-11.31C276.45,259.07,281.38,255.25,286.26,251.48Z" transform="translate(-5)" style="fill:#fff;fill-rule:evenodd"/><path d="M261.18,256.84q-4.67,3.28-9.42,6.51L266,261.89q4.41-3.29,8.77-6.57Z" transform="translate(-5)" style="fill:#1bb7ca;fill-rule:evenodd"/><path d="M420.67,339q-25.93-6.1-51.86-12.17L317,314.6q1.81-12.57,3.63-25.16a44.63,44.63,0,0,1,3.25,11.17l7.5,1.31A53.41,53.41,0,0,0,322,280l-0.51,3.53,2.69-18.6q3.59-24.83,7.19-49.69l38.72,10.93q19.35,5.46,38.74,10.93,3,25.47,5.94,50.92T420.67,339Z" transform="translate(-5)" style="fill:#c8c8c8;fill-rule:evenodd"/><path d="M420.35,336.17L368.84,324Q343.1,318,317.36,311.88q1.63-11.21,3.25-22.44a44.62,44.62,0,0,1,3.25,11.17l7.5,1.31A53.4,53.4,0,0,0,322,280L324.15,265l6.78-47L370,229l39.12,11q2.82,24.06,5.61,48.12T420.35,336.17Z" transform="translate(-5)" style="fill:#80b3c1;fill-rule:evenodd"/><path d="M414.22,283.58c-14.45,2.57-29.43,5.17-45,7.57-12.67,2-25.7,3.79-39.06,5.61q0.57,2,1,4c13-1.74,25.69-3.51,38-5.37,15.73-2.38,30.9-5,45.52-7.52l-0.5-4.33h0Zm-90.91,14.11-4,.53c-0.21,1.41-.4,2.82-0.61,4.23l8.9-1.18-3.77-.66Q323.64,299.13,323.31,297.69Z" transform="translate(-5)" style="fill:#c8c8c8;fill-rule:evenodd"/><path d="M414,281.45L369.52,270l-44.44-11.48c-0.17,1.1-.32,2.2-0.48,3.29l44.87,11.53,44.89,11.5C414.24,283.72,414.11,282.58,414,281.45Z" transform="translate(-5)" style="fill:#c8c8c8;fill-rule:evenodd"/><path d="M415.27,292.55c-7.59-3.22-13.24-8.26-13.6-12.6s4.45-6.72,11.4-6.21Q414.18,283.14,415.27,292.55Z" transform="translate(-5)" style="fill:#cb952f;fill-rule:evenodd"/><path d="M414.86,289c-4-2.14-6.89-5-7.14-7.52s2.1-4,5.77-4.21Z" transform="translate(-5)" style="fill:#31404b;fill-rule:evenodd"/><path d="M382,293.42c1.2-.61,2.43-1.21,3.62-1.84q-15.77-7.46-31.15-14.89c-10.11-4.91-20.08-9.88-29.89-14.81-0.18,1.19-.34,2.37-0.52,3.54,9.34,4.65,18.81,9.34,28.41,14S372,288.75,382,293.42Z" transform="translate(-5)" style="fill:#c8c8c8;fill-rule:evenodd"/><path d="M411.87,263.44q-21.25-8-42.07-16-20.63-7.92-40.83-15.87c-0.17,1.1-.32,2.2-0.48,3.3q20.41,7.94,41.26,15.92,21,8,42.51,16C412.14,265.71,412,264.57,411.87,263.44Z" transform="translate(-5)" style="fill:#c8c8c8;fill-rule:evenodd"/><path d="M350.48,241.55q2.38,1.45,4.77,2.87c5.23-1.84,10.37-3.67,15.39-5.55s9.75-3.76,14.47-5.66l-6.92-1.93c-4.4,1.73-8.88,3.48-13.46,5.17S355.31,239.87,350.48,241.55Z" transform="translate(-5)" style="fill:#c8c8c8;fill-rule:evenodd"/><path d="M345.68,264.9l5.33,3q2.74-12,5.29-24c-1.66-1-3.31-2-4.95-3C349.53,248.93,347.63,256.94,345.68,264.9Z" transform="translate(-5)" style="fill:#c8c8c8;fill-rule:evenodd"/><path d="M354.88,254.78c-0.1-1.29-.2-2.56-0.29-3.83l-13.69-3.64-13.67-3.64c-0.19,1.21-.36,2.44-0.54,3.66q7,1.87,14.08,3.72Z" transform="translate(-5)" style="fill:#c8c8c8;fill-rule:evenodd"/><path d="M412.3,267.09q-15.31-4.25-30.56-8.52T351.26,250c-0.32,1.17-.66,2.36-1,3.55q15.59,4.34,31.2,8.68c10.4,2.87,20.84,5.79,31.3,8.67C412.6,269.65,412.45,268.38,412.3,267.09Z" transform="translate(-5)" style="fill:#c8c8c8;fill-rule:evenodd"/><path d="M365.48,271.31c2.3,0.37,4.61.73,6.92,1.11q-0.09-7-.17-14l-6.67-.69Q365.52,264.49,365.48,271.31Z" transform="translate(-5)" style="fill:#c8c8c8;fill-rule:evenodd"/><path d="M387.76,276.65c2.29,0.36,4.58.74,6.88,1.11q-0.54-7.05-1.08-14.13L387,263C387.23,267.54,387.49,272.09,387.76,276.65Z" transform="translate(-5)" style="fill:#c8c8c8;fill-rule:evenodd"/><path d="M367,238.63l4.09-1.83-20.47-7.73q-10.15-3.84-20.19-7.73c-0.16,1.1-.32,2.2-0.48,3.31,6.1,2.33,12.25,4.66,18.41,7Z" transform="translate(-5)" style="fill:#c8c8c8;fill-rule:evenodd"/><path d="M417.74,313.72q-15.4-4.81-30.66-9.6t-30.3-9.57c0,1.14.09,2.26,0.13,3.39q15.15,4.79,30.43,9.55l30.79,9.59C418,316,417.86,314.84,417.74,313.72Z" transform="translate(-5)" style="fill:#c8c8c8;fill-rule:evenodd"/><path d="M346.81,306.34l8.8,3.35q7-1.26,13.94-2.58c4.55-.87,9.05-1.77,13.52-2.65l-8.61-3.33q-6.75,1.34-13.63,2.62T346.81,306.34Z" transform="translate(-5)" style="fill:#c8c8c8;fill-rule:evenodd"/><path d="M322,280a53.41,53.41,0,0,1,9.38,21.91l-7.5-1.31a44.63,44.63,0,0,0-3.26-11.18Z" transform="translate(-5)" style="fill:#cb952f"/><path d="M321.48,283.33h0l0.1-.66c0,0.22-.06.44-0.1,0.66h0Zm4.18,2.57c5.71-.51,11.39-1,17-1.55q9.55-.9,18.92-1.86c-0.79-1.22-1.57-2.46-2.33-3.7-6.1.62-12.26,1.25-18.49,1.84q-8.56.82-17.28,1.59Q324.62,284,325.66,285.9Z" transform="translate(-5)" style="fill:#c8c8c8;fill-rule:evenodd"/><path d="M349.11,319.37q3.92-4.84,7.73-9.7l-6.9-3.12q-4.39,5.47-8.94,10.9Z" transform="translate(-5)" style="fill:#c8c8c8;fill-rule:evenodd"/><path d="M416,298.48l-18.5-4.63q-9.26-2.31-18.5-4.65l-0.9,3.45,19.16,4.77,19.17,4.77C416.25,301,416.1,299.73,416,298.48Z" transform="translate(-5)" style="fill:#c8c8c8;fill-rule:evenodd"/><path d="M352.43,296.53l17.44,5.5q-9.1,1.74-18.46,3.48-8.4-2.56-16.77-5.15C342.17,299.57,345.11,297.35,352.43,296.53Z" transform="translate(-5)" style="fill:#31404b;fill-rule:evenodd"/><path d="M325.08,258.51l20.84,5.39c0.9-3.66,1.78-7.31,2.65-11l-11-2.83-10.93-2.83Z" transform="translate(-5)" style="fill:#31404b;fill-rule:evenodd"/><path d="M372.25,259.68c0.05,3.69.09,7.36,0.15,11l15.25,3.93c-0.22-3.62-.44-7.26-0.64-10.88Z" transform="translate(-5)" style="fill:#1bb7ca;fill-rule:evenodd"/><path d="M358.71,243.19c4.46-1.58,8.84-3.19,13.14-4.79l11.55,4.46c3.87,1.49,7.77,3,11.67,4.48q-4.11,3.3-8.36,6.58c-4.71-1.78-9.41-3.59-14.07-5.37S363.34,245,358.71,243.19Z" transform="translate(-5)" style="fill:#1bb7ca;fill-rule:evenodd"/><path d="M412.3,267.09c-9.6-2.66-19.22-5.37-28.79-8l-28.7-8c0.39-1.82.78-3.64,1.16-5.47q13.84,5.31,27.88,10.63t28.42,10.66A2.6,2.6,0,0,1,412.3,267.09Z" transform="translate(-5)" style="fill:#1bb7ca;fill-rule:evenodd"/><path d="M419.17,326.05q-23-6.92-45.69-13.82-21.45-6.51-42.67-13.06,0.31,1.36.55,2.75l-3-.51v0.43q22.51,6.88,45.24,13.77t45.94,13.8C419.44,328.29,419.31,327.17,419.17,326.05Z" transform="translate(-5)" style="fill:#cb952f;fill-rule:evenodd"/><path d="M508.74,227.76q10.77,24.39,21.56,48.75t21.56,48.71l-65.62,6.87L420.67,339q-3-25.44-5.94-50.89t-5.92-50.93l50-4.68Z" transform="translate(-5)" style="fill:#fff;fill-rule:evenodd"/><path d="M504.28,231q9.79,23.1,19.54,46.18t19.54,46.16l-61.53,6.43-61.5,6.43q-2.81-24.07-5.61-48.11t-5.61-48.12l47.57-4.47Z" transform="translate(-5)" style="fill:#97d3e8;fill-rule:evenodd"/><path d="M450,236.1c-4.61,7.94-9.4,16-14.66,23.94-5.37,8.12-11.22,16.16-17.24,24.28l7.61,0.57c6.08-8.35,11.94-16.6,17.31-24.94,5.26-8.18,10-16.42,14.62-24.57Z" transform="translate(-5)" style="fill:#fff;fill-rule:evenodd"/><path d="M432.44,280.69c3.12,4.69,9.36,13.09,26.22,21a157.06,157.06,0,0,0,31.44,9.94c13.58,2.94,30.43,5.3,51.18,6.81,0.56,1.29,1.1,2.59,1.64,3.86-23.27-1.47-42.06-3.93-57.09-7.11-14.76-3.11-25.95-6.92-34.51-10.81-17.71-8.41-24.06-17.24-27.24-22.17Z" transform="translate(-5)" style="fill:#fff"/><path d="M507.2,237.9c-14,7.42-28.62,15-43.88,22.48-15.74,7.73-32.16,15.39-49.11,23.2,0.16,1.45.33,2.89,0.5,4.33,17.15-7.84,33.79-15.51,49.75-23.27,15.45-7.51,30.24-15.13,44.49-22.57C508.37,240.68,507.8,239.29,507.2,237.9Z" transform="translate(-5)" style="fill:#fff;fill-rule:evenodd"/><path d="M433.68,334.78q-3.56-24-7.11-47.9L419.45,239c-2.36.22-4.72,0.46-7.08,0.67q3,24,6.08,48.06l6.09,48Z" transform="translate(-5)" style="fill:#fff;fill-rule:evenodd"/><path d="M521.13,270.81l-53.6,5.33L414,281.46c0.13,1.12.27,2.26,0.4,3.38l54.06-5.38,54.09-5.39C522,273,521.6,271.9,521.13,270.81Z" transform="translate(-5)" style="fill:#fff;fill-rule:evenodd"/><path d="M420.48,272.46c7.66-.75,23.88,2.16,25,7.58s-14.18,11.44-22.26,12.25-5.44.36-7.94,0.26l-2.19-18.81C415.36,273.16,412.82,273.21,420.48,272.46Z" transform="translate(-5)" style="fill:#fdb836;fill-rule:evenodd"/><path d="M420.92,275.71c5.69-.56,16.18,1.42,16.84,5.09s-9.1,7.67-15,8.26-5.57.26-7.93-.06l-1.37-11.73C415.63,276.54,415.23,276.27,420.92,275.71Z" transform="translate(-5)" style="fill:#145492;fill-rule:evenodd"/><path d="M419.65,266.76c-0.09-1.11-.16-2.25-0.24-3.38-2.53,0-5,.06-7.54.07l0.39,3.39Z" transform="translate(-5)" style="fill:#fff;fill-rule:evenodd"/><path d="M421.81,270.14c0.14-1.3.27-2.59,0.4-3.89l-9.93.85c0.16,1.29.3,2.56,0.46,3.84Z" transform="translate(-5)" style="fill:#fff;fill-rule:evenodd"/><path d="M428.56,316.57c-0.29-1.1-.56-2.2-0.84-3.31l-10,.46,0.39,3.36Q423.32,316.84,428.56,316.57Z" transform="translate(-5)" style="fill:#fff;fill-rule:evenodd"/><path d="M455.34,304.6c3.08,0.22,6.15.46,9.23,0.67,5.44-4.9,10.78-9.76,15.89-14.67s9.87-9.7,14.61-14.52c-2.95-.24-5.87-0.48-8.8-0.73-4.81,4.84-9.73,9.7-14.83,14.54S460.85,299.67,455.34,304.6Z" transform="translate(-5)" style="fill:#fff;fill-rule:evenodd"/><path d="M473.67,330.6q-3.15-6.87-6.22-13.77t-6-13.82l-9.34,1.32q2.79,6.86,5.65,13.69t5.87,13.63Z" transform="translate(-5)" style="fill:#fff;fill-rule:evenodd"/><path d="M460.09,306.47l-1.42-4.58q-8.48,2.57-17.07,5.15c-5.75,1.72-11.54,3.46-17.37,5.17,0.33,1.56.67,3.1,1,4.65l17.58-5.2Q451.5,309.08,460.09,306.47Z" transform="translate(-5)" style="fill:#fff;fill-rule:evenodd"/><path d="M426,301.24c0.56-1.3,1.1-2.62,1.66-3.93l-11.7,1.18,0.43,3.71Z" transform="translate(-5)" style="fill:#fff;fill-rule:evenodd"/><path d="M447.29,246.3c0.41,1.21.83,2.43,1.26,3.65l24-1.46L496.74,247c1.7-1.19,3.43-2.37,5.14-3.56-9.14.5-18.3,1-27.41,1.45Z" transform="translate(-5)" style="fill:#fff;fill-rule:evenodd"/><path d="M464.18,246.41q4.81,0.18,9.64.33c3.2-4.6,6.32-9.2,9.31-13.77l-10.23,1Q468.68,240.15,464.18,246.41Z" transform="translate(-5)" style="fill:#fff;fill-rule:evenodd"/><path d="M436.46,260.92c0.37,1.23.76,2.47,1.13,3.69,5.29-.61,10.59-1.25,15.88-1.87l15.86-1.88q2.81-1.8,5.61-3.61l-19.24,1.85Z" transform="translate(-5)" style="fill:#fff;fill-rule:evenodd"/><path d="M457.62,235.38q-2.94,5.34-6.05,10.69c4.45-.22,8.9-0.44,13.38-0.69q4.1-5.72,8-11.44Z" transform="translate(-5)" style="fill:#1bb7ca;fill-rule:evenodd"/><path d="M530.52,293q-13.52-1.5-26.81-3c-8.76-1-17.45-2.1-26.08-3.17-1.06,1.1-2.13,2.19-3.2,3.28,9.37,1.16,18.85,2.31,28.41,3.41s19.43,2.2,29.27,3.28Z" transform="translate(-5)" style="fill:#fff;fill-rule:evenodd"/><path d="M487.77,314.56c2.63,0.36,5.29.71,7.94,1q10.86-11.36,20.8-22.57L508.79,292Q498.72,303.19,487.77,314.56Z" transform="translate(-5)" style="fill:#fff;fill-rule:evenodd"/><path d="M535.57,304.91q-15-2.05-29.66-4.17c-1.39,1.2-2.78,2.38-4.18,3.57q8.78,1.27,17.64,2.49t18,2.44C536.8,307.8,536.2,306.35,535.57,304.91Z" transform="translate(-5)" style="fill:#fff;fill-rule:evenodd"/><path d="M509.73,318.27l8.46,0.76q7-7.05,13.68-14c-2.76-.27-5.54-0.51-8.28-0.79Q516.84,311.23,509.73,318.27Z" transform="translate(-5)" style="fill:#fff;fill-rule:evenodd"/><path d="M505.88,304.9Q502,309,498,313.21s3.8,0.71,7.07,1.21,7.41,1.09,7.41,1.09c2.85-2.85,5.64-5.67,8.4-8.51Q513.36,306,505.88,304.9Z" transform="translate(-5)" style="fill:#145492;fill-rule:evenodd"/><path d="M415.7,266.81c-1.14.1-2.27,0.2-3.42,0.28a1.7,1.7,0,0,0,0-.26Z" transform="translate(-5)" style="fill:#1bb7ca;fill-rule:evenodd"/><polygon points="503.96 242.06 475.33 256.78 481.02 274.3 516.13 270.81 503.96 242.06" style="fill:#145492;fill-rule:evenodd"/><polygon points="470.85 257.7 477.3 275.32 481.93 274.76 475.18 255.57 470.85 257.7" style="fill:#fff;fill-rule:evenodd"/><path d="M507.2,237.9l1.76,4.16q-35.92,19.06-73.33,36.3a20.11,20.11,0,0,0-6-2.05Q469.32,257.43,507.2,237.9Z" transform="translate(-5)" style="fill:#fdb836;fill-rule:evenodd"/><path d="M509,242.06L501.47,246v0l7.49-3.9h0Zm-7.49-1.14v-0.08l5.73-2.94Zm0,5.08q-11.57,6-23.29,11.9v0q11.9-6,23.29-11.9v0h0Zm0-5.16v0.08l-5.41,2.83-0.32,0,5.73-2.93h0ZM478.18,253q5.41-2.74,10.71-5.49l-0.52,0-10.19,5.12V253Zm0,4.94q-13.73,6.86-27.67,13.48v-0.06q7.06-3.34,14-6.69t13.72-6.78v0h0Zm0-5.27L467.47,258l0.94-.09q4.94-2.45,9.78-4.91v-0.33h0Zm-27.67,14q4.83-2.31,9.59-4.63l-1,.12-8.61,4.2v0.31Zm0,4.79q-4.74,2.25-9.51,4.48l-0.08,0q4.83-2.25,9.59-4.5v0.06h0Zm0-5.11q-7.77,3.78-15.6,7.53l0.24,0.06q7.77-3.64,15.36-7.27v-0.31Z" transform="translate(-5)" style="fill:#fdb836;fill-rule:evenodd"/><path d="M414.22,283.58h0l0,0.35,0-.35h0Zm-5.11,1q-44.8,7.79-89.77,13.69l-0.61,4.23q46.87-6,94.62-14.31A16.47,16.47,0,0,1,409.11,284.53Z" transform="translate(-5)" style="fill:#cb952f;fill-rule:evenodd"/><polygon points="314.34 298.22 313.73 302.45 282.82 316.9 269.62 319.13 314.34 298.22" style="fill:#fdb836;fill-rule:evenodd"/><polygon points="225.74 277.31 223.86 280.68 319.6 261.88 320.45 258.6 225.74 277.31" style="fill:#fdb836;fill-rule:evenodd"/><polygon points="320.45 258.6 319.61 261.8 397.35 281.75 397.84 278.58 320.45 258.6" style="fill:#cb952f;fill-rule:evenodd"/><path d="M444.63,278.41l76.5-7.6,1.37,3.25s-76.23,8.37-77.45,7.72S442,278.67,444.63,278.41Z" transform="translate(-5)" style="fill:#fdb836;fill-rule:evenodd"/><path d="M412.37,239.63l7.08-.67,5,33.4a30.69,30.69,0,0,0-3.93.09c-1.8.18-3,.31-3.9,0.41Z" transform="translate(-5)" style="fill:#fdb836;fill-rule:evenodd"/><path d="M435.27,284.58c3.83,4.74,10.51,11.06,23.39,17.1a157.06,157.06,0,0,0,31.44,9.94c13.58,2.94,30.43,5.3,51.18,6.81,0.56,1.29,1.1,2.59,1.64,3.86-23.27-1.47-42.06-3.93-57.09-7.11-14.76-3.11-25.95-6.92-34.51-10.81-12.16-5.77-19-11.74-23.06-16.52A26.47,26.47,0,0,0,435.27,284.58Z" transform="translate(-5)" style="fill:#fdb836"/><polygon points="273.71 267.83 323.36 234.93 322.87 239.25 284.12 265.78 273.71 267.83" style="fill:#fdb836;fill-rule:evenodd"/><polygon points="344.23 223.15 323.36 234.93 322.86 239.25 348.86 224.44 344.23 223.15" style="fill:#cb952f;fill-rule:evenodd"/><polygon points="323.98 231.6 241.54 241.67 240.04 244.97 323.5 234.91 323.98 231.6" style="fill:#fdb836;fill-rule:evenodd"/><path d="M329,231.61L328.28,235q41.46,16.13,83.81,31.79l-0.53-3.8Z" transform="translate(-5)" style="fill:#cb952f;fill-rule:evenodd"/><polygon points="406.85 263.22 411.01 263.06 410.95 266.8 407.26 266.83 406.85 263.22" style="fill:#fdb836;fill-rule:evenodd"/><path d="M214.24,312.93q25.89-8.68,51-17.36c15-5.25,29.85-10.58,44.42-15.89-1.25-.7-2.55-1.33-3.87-1.91-13.44,4.92-27.09,9.87-40.94,14.75-16,5.65-32.4,11.22-49,16.82C215.32,310.53,214.77,311.73,214.24,312.93Z" transform="translate(-5)" style="fill:#fdb836;fill-rule:evenodd"/><path d="M542.93,322.29L542.08,319c-3.79.21-119.16,6.91-122.93,7.08,0.14,1.12.27,2.25,0.4,3.36C423.45,329.19,539,322.49,542.93,322.29Z" transform="translate(-5)" style="fill:#fdb836;fill-rule:evenodd"/><path d="M277,267.76c3.37,0.12,8.1.33,13.36,1a86.71,86.71,0,0,1,16.9,3.69,48.43,48.43,0,0,1,14.7,7.59q-0.66,4.69-1.34,9.4c-4.5-6.78-11.88-10.93-19.65-13.51a79,79,0,0,0-15.77-3.42c-4.94-.6-9.37-0.8-12.55-0.93Q274.83,269.67,277,267.76Z" transform="translate(-5)" style="fill:#fdb836"/><path d="M466.25,269.28h0s-67.61-106.07-67.61-164.77a67.61,67.61,0,1,1,135.21,0c0,57.48-67.61,164.77-67.61,164.77h0Z" transform="translate(-5)" style="fill:#31404b"/><path d="M466.45,127.17h0a22.47,22.47,0,1,0-22.67-22.66,22.54,22.54,0,0,0,22.67,22.66h0Z" transform="translate(-5)" style="fill:#67cdfd"/><path d="M466.69,153.45h0c26.35,0,48.3-21.95,48.3-49.17C515,77.93,493,56,466.69,56c-27.22,0-49.19,22-49.19,48.33a49.11,49.11,0,0,0,49.19,49.17h0Z" transform="translate(-5)" style="fill:none;stroke:#67cdfd;stroke-miterlimit:10;stroke-width:5px"/></svg>