<svg id="Calque_1" data-name="Calque 1" xmlns="http://www.w3.org/2000/svg" viewBox="0 0 740 380"><title>ic_steal</title><rect width="740" height="380" style="fill:#fff"/><ellipse cx="406.5" cy="314.89" rx="92.04" ry="15.9" style="fill:#97d3e8"/><path d="M339.9,283.43l1.44,15.94-9.06-3.47s-10.66,13.63-3.21,16.35,4.88-9.65,4.88-9.65,9.87,5.83,15.51,5.48,3.36-13,3.36-13,67.27,2.7,119.45-20.87c0,0,4.55,19.42,4.48,26.69,0,0,21.27-2.14,20.51-12.42s-14.37,2.85-14.37,2.85,1.08-19.77-1.28-24.86-14,1.55-14,1.55Z" transform="translate(-5)" style="fill:#31404b"/><path d="M362.77,89.7S438.13,64.16,461,168.42c-12.63,8.32-63.07,25.85-144.94,28.77l-1,.12C310.19,154.82,317.16,108.67,362.77,89.7Z" transform="translate(-5)" style="fill:#ffddbf"/><path d="M324.95,105.74s3-55.33,50.06-46c41.23,8.18,68.16,11.66,82.37-20.69,0,0,9.48,92-110.45,83.83,0,0-4,20-6.14,29.15,0,0-7.13-6.87-10.54,2.51-2.76,7.58,8.32,7.25,8.32,7.25s-4.38,23-23.54,34.94C315,196.75,274.91,88.54,324.95,105.74Z" transform="translate(-5)" style="fill:#31404b"/><path d="M461,168.42c-10.37,6.43-68.2,24.9-145.92,28.89,11.32,58.52,24.8,86.12,24.8,86.12,76.26,1.37,126.76-15.51,126.76-15.51C471.21,211.79,461.06,168.59,461,168.42Z" transform="translate(-5)" style="fill:#145492"/><path d="M524.48,176.74c-10.14-16.61-66.83-5.17-66.83-5.17L463,185.24c33-6.86,44.52-7.32,49.4-2.33,7.59,13.27-6.37,15.55-6.37,15.55l-1,0,2.7,13.63,0.58-.1C532.95,208.12,532.11,190.34,524.48,176.74Z" transform="translate(-5)" style="fill:#145492"/><path d="M341.6,140.64s72-8.79,98.37-26.65c0,0,22.68,26.37-6.8,36-27,8.83-29.16-6-34.23-4.05s1.06,14.83-25.58,20.78-32.56-15.81-32.56-15.81Z" transform="translate(-5)" style="fill:#31404b"/><path d="M408.7,140.83s25.66,9.5,25.33-16.26Z" transform="translate(-5)" style="fill:#ededed"/><path d="M386.91,145.9s-14.94,22.93-30,2.05Z" transform="translate(-5)" style="fill:#ededed"/><path d="M498.71,198.61c-0.71.05-5.08,0.64-4.8,2.69a2.09,2.09,0,0,0,1.87,1.64,1.92,1.92,0,0,0-1.38,1.9,2,2,0,0,0,1.61,1.58,1.78,1.78,0,0,0-1.15,1.78,2.09,2.09,0,0,0,1.87,1.64,1.92,1.92,0,0,0-1.38,1.89c0.26,1.91,3.14,1.84,4.12,1.76l8.31-1.37-2.7-13.63Z" transform="translate(-5)" style="fill:#fddcbe"/><path d="M385.54,166.74s34.28,10.94,34.3-4.35C406.52,167.93,385.54,166.74,385.54,166.74Z" transform="translate(-5)" style="fill:#472d1f"/><rect x="226.87" y="217.02" width="173.78" height="112.46" rx="12.61" ry="12.61" transform="translate(-45.1 54.4) rotate(-9.32)" style="fill:#fff;stroke:#2c2f82;stroke-miterlimit:10;stroke-width:4.33881133794785px"/><line x1="240.86" y1="298.9" x2="341.9" y2="282.32" style="fill:none;stroke:#139fd2;stroke-linecap:round;stroke-linejoin:round;stroke-width:5.20657360553741px"/><line x1="243.55" y1="315.33" x2="331.52" y2="300.9" style="fill:none;stroke:#139fd2;stroke-linecap:round;stroke-linejoin:round;stroke-width:5.20657360553741px"/><polygon points="369.16 282.41 366.47 265.99 375.96 272.87 385.44 279.74 378.65 289.28 371.86 298.83 369.16 282.41" style="fill:none;stroke:#139fd2;stroke-linecap:round;stroke-linejoin:round;stroke-width:4.33881133794785px"/><rect x="239.79" y="245.59" width="33.81" height="29.88" rx="10.44" ry="10.44" transform="translate(-43.79 44.99) rotate(-9.32)" style="fill:#139fd2"/><path d="M307.86,268.56s-36.37-50.24,13.48-56.32l-2.75-14.43s-70.54,12-22.7,77.52l2.83,4.55,10.38-9.74Z" transform="translate(-5)" style="fill:#145492"/><path d="M309.1,270.15l-10.38,9.74,3.44,5.54c0.56,0.81,2.32,3.09,4,2.09a1.92,1.92,0,0,0,.6-2.27,2.09,2.09,0,0,0,2.45.41,1.79,1.79,0,0,0,.65-2,2,2,0,0,0,2.24.26,1.92,1.92,0,0,0,.6-2.27,2.09,2.09,0,0,0,2.45.41c1.76-1.07-.54-4.84-0.94-5.42Z" transform="translate(-5)" style="fill:#fddcbe"/></svg>